/* XPM */
static char *cbb995ce31ee43518e5d0acec914f0440hjranVGnN7kXkrZ[] = {
/* columns rows colors chars-per-pixel */
"64 64 66 1 ",
"  c #65738C",
". c #65748C",
"X c #66748E",
"o c #68768F",
"O c #687690",
"+ c #687790",
"@ c #6B7892",
"# c #6A7992",
"$ c #6B7993",
"% c #6D7B94",
"& c #6D7C95",
"* c #6E7D95",
"= c #707E97",
"- c #707F98",
"; c #718099",
": c #72809A",
"> c #74819B",
", c #74839B",
"< c #75849D",
"1 c #77859E",
"2 c #7786A0",
"3 c #7987A0",
"4 c #7988A1",
"5 c #7D8BA3",
"6 c #7B8BA4",
"7 c #7D8BA4",
"8 c #7D8CA5",
"9 c #7F8CA4",
"0 c #7E8DA7",
"q c #808DA4",
"w c #808EA7",
"e c #8491A6",
"r c #8592A7",
"t c #8D97A7",
"y c #8E98A8",
"u c #8F98A9",
"i c #9099A9",
"p c #919BAA",
"a c #949BA9",
"s c #959CA8",
"d c #969DA9",
"f c #959DAA",
"g c #979EAB",
"h c #9BA1AB",
"j c #9CA2AA",
"k c #9FA4AB",
"l c #9DA2AC",
"z c #A0A4AB",
"x c #A4A7AB",
"c c #A5A7AB",
"v c #A8A9AB",
"b c #ACADAD",
"n c #B2B2B2",
"m c #EAE4B2",
"M c #EDE7B3",
"N c #EAE4B4",
"B c #EFE9B3",
"V c #EEE8B4",
"C c #EFE9B4",
"Z c #FBF3B6",
"A c #FBF4B5",
"S c #FEF6B7",
"D c #FFF8B6",
"F c #FDF5B8",
"G c #FFF7B8",
"H c #FFF8BB",
/* pixels */
"                                                                ",
"                                                                ",
"                                                                ",
"                                                                ",
"                                                                ",
"                                                                ",
"                                                                ",
"                              .....                             ",
"                        ....O.$.OOO  O                          ",
"                     .. OOO.$O.OOOOO.OO                         ",
"                   .o ooOO$$$$$$$$$$$OOOo O                     ",
"                   .ooO$$$*$*********%$$OoO                     ",
"                 .ooo$$*----;;;;-;--**=@$O$oo                   ",
"               . oo$$$*=-;>>2><<<<<<<----%$Ooo                  ",
"              ..o$$$==>-><<423341432<2<---=@$$oo.               ",
"             ..O$O$=;=<1441436687474343<<--=$$ooo.              ",
"            .Ooo$*=;,<1447688888888784443<<-=$$oo               ",
"             o$$@=>><11977780lnbbnj0878333<<-=*$oo.             ",
"            oO$$=-<14488wdjjldiiuddlhld77741>--$$Oo             ",
"            OO$=-<<348riujkjzCHDGHCklxjite441<-*$$O             ",
"          oOO$%<<<368wdvxmHSSSDDHHSSSSmxvd843<;-=$$O            ",
"         . OO**-<347wlgCVADHHHHHHDHSHSACVdjw74<>-$Oo.           ",
"          O@%*;<336rddCGSDHDHDDHHDHDDDGGSMddr12<;=@ooo          ",
"          OO%--<368ivCGGHDHHHHHHHHHHHHHGDGCvt63<;-*$O           ",
"        .oO$*->3377uxCGHHHDHHHHHHHHHHHHDSDCxu732<-*$Oo          ",
"         OO$-;<467flmAGHHHHHHHDHDHDHHDHHHDSmju73<-=@OO          ",
"        oO$**><488llDHHDHDDHHHHHHHHHHDDHHDGSkj541>-*$oo         ",
"         O$$;<1870jzAHDHHHHHHHHHHHHHHHHHDHSAjj544,-$$O..        ",
"       .oO$%;<448wllGHHHHHDHHHHHHHHHHDHHHDSGjl841<>*$.O.        ",
"       .oO$*;<<88ldCGHDHHDHHHHHHHHHHHHHHHHDDCdz84>-*$$..        ",
"       .o$$*;<148niGHDHHHHHHHHHHHHHHHHHDHDHSSin4<<>*$oo         ",
"       ..O$%>,488bdGSHHHHHHHHHHHHHHHHHHHHHDHDib74<-*$oo         ",
"       ..$$*;<468buDDHHDDHHHHHHHHHHHHHHHHDDDDib51<-=$$ .        ",
"       .O.$*;>368ndSHDHHHHHHHHHHHHHHHHHDHHHDDin85>-*$Oo         ",
"       ..O$*;<348ldVSHHHHHHHHHHHHHHHHHHHHDSSCij41<-=$oo         ",
"        .O$*-<1980jjSDDHHHHDHHHHHHHDHDHHHDSSjlw43<*=$O          ",
"        oO$$-<<468jxSGGHDHHDHHHHHHDHHHDHDHDSxj81<;-*$.O         ",
"        .O$$=;>148llSSHHHHHHHHHHHHHHDHHHHSSDjk44<-*$O.          ",
"        .O.%%;<148dhNSSHHHDHHHDHHHHHHHDHHSAmdd41<-=$$O          ",
"       ...OO%-><448uxCDGDDHHDHHHHDDHHDHDSDVxt84<<%%$O           ",
"          oo$=>-438ucCDHDHHHHHHHHHHDHDHDSDVvy11<==$Oo           ",
"           o$$=;<33rddVDSHDDHDDHDHHDDSSDDVdsr1<>;$$O .          ",
"           o$$=;><46qjdVMAGGSDHHGGSDSDZVVsj511,;*$Oo.           ",
"           ooO$=;;234wdxvmSZSSSDGGSGSSmxvsw<1,==$$Oo.           ",
"            oo@$*;,<44ruijjzjCDDDDCxjjjutr4<,;=$$oo             ",
"             o$@*=;<<4158ijjjdiiuuijjji611<,>-@$oo              ",
"              o$$$=;><343647wjnbbnj877331<,;*$$$oo.             ",
"             . o@$$*=;<<333635844846333<<>=*$$@o .              ",
"              ..OO%%--=>,;41<344333131>--=-$OOO.                ",
"               . OOO$%*=;;><<<<<<<<<<---%=O%OoO.                ",
"                 .OOOO$=*==-;;>;-<--==**%OOOo..                 ",
"                    OOO$$$=$****=%*%%O@@OOO..                   ",
"                    O.OOoO$$O$$$O$$$$ooOOO                      ",
"                       .ooOOOOOOO$O.ooo X                       ",
"                          .oo.oo. .$.o                          ",
"                            .....                               ",
"                                ..                              ",
"                                                                ",
"                                                                ",
"                                                                ",
"                                                                ",
"                                                                ",
"                                                                ",
"                                                                "
};
