/* XPM */
static char *c6c354f6fe694c6b8ac47308c4027b7fEH97cDNBwmu5XPW1[] = {
/* columns rows colors chars-per-pixel */
"64 64 7 1 ",
"  c #323232",
". c #4F5277",
"X c #65738C",
"o c #7B94A1",
"O c #7C94A0",
"+ c #7C94A1",
"@ c #879DA9",
/* pixels */
"++++++++++++++++++++++++++++++++++++++++++++++++++.X.+++++++++++",
"++++++++++++++++++++++++++++++++++++++++++++++++X+.X.+++++++++++",
"++++++++++++++++++++++++++++++++++++++++++++++++++.X.+++++++++++",
"++++++++++++++++++++++++++++++++++++++++++++++++++.X.+++++++++++",
"++++++++++++++++++++++++++++++++++++++++++++++++++.X.+++++++++++",
"++++++++++++++++++++++++++++++++++++++++++++++++++.X.+++++++++++",
"++++++++++++++++++++++++++++++++++++++++++++++++++.X.+++++++++++",
"++++++++++++++++++++++++++++++++++++++++++++++++++.X.+++++++++++",
"++++++++++++++++++++++++++++++++++++++++++++++++++.X.+++++++++++",
"++++++++++++++++++++++++++++++++++++++++++++++++++.X.+++++++++++",
"++++++++++++++++++++++++++++++++++++++++++++++++X+.X.+++++++++++",
"++++++++++++++++++++++++++++++++++++++++++++++++++.X.+++++++++++",
"++++++++++++++++++++++++++++++++...................X.+++++++++++",
"++++++++++++++++++++++++++++++++.XXXXXXXXXXXXXXXXXXX.+++++++++++",
"++++++++++++++++++++++++++++++++.X...................+++++++++++",
"++++++++++++++++++++++++++++++++.X.+++++++++++++++++++++++++++++",
"++++++++++++++++++++++++++++++++.X.+X+++++++++++++++++++++++++++",
"++++++++++++++++++++++++++++++++.X.+++++++++++++++++++++++++++++",
"++++++++++++++++++++++++++++++++.X.+++++++++++++++++++++++++++++",
"++++++++++++++++++++++++++++++++.X.+++++++++++++++++++++++++++++",
"++++++++++++++++++++++++++++++++.X.+++++++++++++++++++++++++++++",
"++++++++++++++++++++++++++++++++.X.+++++++++++++++++++++++++++++",
"++++++++++++++++++++++++++++++++.X.+++++++++++++++++++++++++++++",
"++++++++++++++++++++++++++++++++.X.+++++++++++++++++++++++++++++",
"++++++++++++++++++++++++++++++++.X.+++++++++++++++++++++++++++++",
"++++++++++++++++++++++++++++++++.X.OX++++++Oo+++++++++++++++++++",
"++++++++++++++++++++++++++++++++.X.+++++++++++++++++++++++++++++",
"++++++++++++++++++++++++++o+++++.X...................+++++++++++",
"++++++++++++++++++++++++++++++++.XXXXXXXXXXXXXXXXXXX.+++++++++++",
"++++++++++++++++++++++++++++++++...................X.+++++++++++",
"++++++++++++++++++++++++++++++++++++++++++++++++++.X.+++++++++++",
"+++++++++++++++++++++++++++++++++++O++++++++++++X+.X.+++++++++++",
"++++++++++++++++++++++++++++++++++++++++++++++++++.X.+++++++++++",
"++++++++++++++++++++++++++++++++++++++++++++++++++.X.+++++++++++",
"++++++++++++++++++++++++++++++++++++++++++++++++++.X.+++++++++++",
"++++++++++++++++++++++++++++++++++++++++++++++++++.X.+++++++++++",
"++++++++++++++++++++++++++++++++++++++++++++++++++.X.+++++++++++",
"+++++++++++++++....+++++++++++++++++++++++++++++++.X.+++++++++++",
"++++++++++++...XXXX...++++++++++++++++++++++++++++.X.+++++++++++",
"++++++++++..XXX    XXX..++++++++++++++++++++++++++.X.+++++++++++",
"+++++++++.XX    @     XX.+++++++++++++++++++++++++.X.+++++++++++",
"++++++++.X      +@      X.++++++++++++++++++++++++.X.+++++++++++",
"++++++++.X      ++@     X.++++++++++++++++++++++++.X.+++++++++++",
"+++++++.X       ++@      X.+++++++++++++++++++++++.X.+++++++++++",
"+++++++.X       ++@      X.+++++++++++++++++++++++.X.+++++++++++",
"+++++++.X       ++@      X.+++++++++++++++++++++++.X.+++++++++++",
"++++++.X   @@@@ ++        X.++++++++++++++++++++++.X.+++++++++++",
"++++++.X  @+++++XX++++++@ X.++++++++++++++++++++++.X.+++++++++++",
"++++++.X @++++++XX+++++@  X.++++++++++++++++++++++.X.+++++++++++",
"++++++.X        ++ @@@@   X.++++++++++++++++++++++.X.+++++++++++",
"+++++++.X      @++       X.+++++++++++++++++++++++.X.+++++++++++",
"+++++++.X      @++       X.+++++++++++++++++++++++.X.+++++++++++",
"+++++++.X      @++       X.+++++++++++++++++++++++.X.+++++++++++",
"++++++++.X     @++      X.++++++++++++++++++++++++.X.+++++++++++",
"++++++++.X      @+      X.++++++++++++++++++++++++.X.+++++++++++",
"+++++++++.XX     @    XX.+++++++++++++++++++++++++.X.+++++++++++",
"++++++++++..XXX    XXX..++++++++++++++++++++++++++.X.+++++++++++",
"++++++++++++...XXXX...++++++++++++++++++++++++++++.X.+++++++++++",
"+++++++++++++++....+++++++++++++++++++++++++++++++.X.+++++++++++",
"++++++++++++++++++++++++++++++++++++++++++++++++++.X.+++++++++++",
"++++++++++++++++++++++++++++++++++++++++++++++++++.X.+++++++++++",
"++++++++++++++++++++++++++++++++++++++++++++++++++.X.+++++++++++",
"++++++++++++++++++++++++++++++++++++++++++++++++X+.X.+++++++++++",
"++++++++++++++++++++++++++++++++++++++++++++++++++.X.+++++++++++"
};
