/* XPM */
static char *dc1cf34a0a7649c9a4a32e0d746f791b89h9ThUNF1FS0KEv[] = {
/* columns rows colors chars-per-pixel */
"64 64 72 1 ",
"  c #323232",
". c #363739",
"X c #37393B",
"o c #38393C",
"O c #4B4F5F",
"+ c #455059",
"@ c #4B4F60",
"# c #4B5664",
"$ c #4D5965",
"% c #4F5468",
"& c #4F5B6A",
"* c #505867",
"= c #51576A",
"- c #535A6D",
"; c #555C72",
": c #585F75",
"> c #556374",
", c #5B6476",
"< c #5B6977",
"1 c #576479",
"2 c #5C657B",
"3 c #566978",
"4 c #5F687C",
"5 c #5C687E",
"6 c #5E687E",
"7 c #5F6B7F",
"8 c #5C6C7C",
"9 c #60677A",
"0 c #60687D",
"q c #60697D",
"w c #606A7C",
"e c #616B7E",
"r c #616B7F",
"t c #5B6780",
"y c #5D6780",
"u c #5D6982",
"i c #5E6A83",
"p c #5B6C81",
"a c #5D6C80",
"s c #5D6C82",
"d c #5E6D83",
"f c #5F6C84",
"g c #5F6E84",
"h c #5E7183",
"j c #5F7084",
"k c #5F7185",
"l c #5E7284",
"z c #616B80",
"x c #606D81",
"c c #626C81",
"v c #636D82",
"b c #636E82",
"n c #606B84",
"m c #636F86",
"M c #626E87",
"N c #626F87",
"B c #636F87",
"V c #626F88",
"C c #636F88",
"Z c #627086",
"A c #627186",
"S c #637087",
"D c #637187",
"F c #627188",
"G c #637389",
"H c #63738B",
"J c #647088",
"K c #657189",
"L c #65738B",
"P c #64728C",
"I c #65728C",
"U c #65748C",
/* pixels */
"...XXoooooooXoXX.X.X.X.X.o.X..oX.X.o.o.o.oX..X.X.X.XXoX.XX...o. ",
"O%======-==*=*-=;-;;;-;-;;;&---;>-;;;;;;;-;;;;;-;;;-**--;;;;-&@.",
"%:,9,,,,,,<9,>12iyDMaaVVVaaVnVVnaVaFiFiVMVMMiVMDMVaz6,1iiggVgt&o",
"=,qz787788q8q7iaixiiiViiiiVVUUJIUUIIIJIIIIFIIIIIIPVi15ta6<FPVt%X",
"=,aJFDDVFMCIVBBMCBJUBDDDFDIMJUVJCIJVIJUVIIIJIFIJPPVVCCFDMFJVit-o",
"-9qDLILLVViqq66q92,qqq92qq7q7966qx,77q9q,q707iiixMVVCFDDFUUIin;X",
"=,qhFUFICMq::;;;;,;:-,,;;:;;;:;;;::,,<,--:;;;;;::::,zCVFFIPIii;X",
"-9xDUIFFi71yzCz,qqJM06qxJJnzIVz7qq,Va->,zDIqqz7Ui1yy,zaJIUIFni-X",
"-7iFIIIa7;1aFIUILLIUIUIUUIUIUIUIJIIUUF7>1ijFIIUIIUIIz:,nLPIUaa-o",
"-iiFPIVi228FUUIULLIIUIUIIUIUIUIUIIUIUIFDJ6,MIIIUUPUII17qDLIFxa;o",
";taFPFn,7jjGLIUFxLPUIUIUUIUIUIUIIUIUIUIUFai7bJIUIJCCI21,7MJJsg;o",
";aaiVV11zFGUIUIxeMUPUIUIIUIUIUIUUIUIUIUIUUJzqxUJUU,xnCn,17BJig;.",
";gVVVt>1LIUIIUD7xFIUUIUIUIUIUIUIIUIUIUIUUIUFV7MMIJi,gVJq1:zVVi;X",
";iJFi:7VLUIUIIq,2IIPIUIUIUIUIUIUUIUIUIUIIUPUJMttFI2qa1iUz:yFVV;.",
"-VIF,>LLLLJUUU7>1UUIUIUIUIUIUIUIIUIUIUIUUPUPUF21yB8xM,nIM:;UIg;X",
";VIV,1LUPPUUUL8>1UIUIUIUIUIUIUIUUIUIUIUIIUPUIIUg,bBzz:6VVntVIa;.",
";iIV70JIIUIUIU733LUPUPUIUIUIUIUIUIUIUIUIUIUIIUIU7727z2iIUJtVIV;.",
";CIP19UIPIUIUJ7iFLPUPUIUIUIUIUIUIUIUIUIUIUIUIJUIFVMMxUUIIUtPIM;.",
";MPV,qIUDUUPFxxCUIUPUIUIUIUIUIUIUIUIUIUIUIUIUIIUPIJUxIIUPU7VJV-o",
";iPV79JJqJPUFzqVIUPUIUIUIUIUIUIUIUIUIUIUIUIUIUUIUILLUIUIFP6VIn;.",
";VPV,qIJ7FPPF11FUIUIUIUIUIUIUIUIUIUIUIUIUIUIIUIUPUIUIUIUnVtVIi;o",
";VIP29xiqLPIV>1FIUIUIUIUIUIUIUIUIUIUIUIUIUIUUIUIUPUIUIUIVttIPV;X",
"-VPV,9VqeUUJx6jaUIUIUIUIUIUIUIUIUIUIUIUIUIUIIUIUPUIUIUIUIi2VIV;.",
";nPI,7aiiIFMq77PIUIUIUIUIUIUIUIUIUIUIUIUIUIUUIUIUPUIUIUIFt2VIn;.",
";VVV1zCzCIMqMDMUUIUIUIUIUIUIUIUIUIUIUIUIIUIUIUIUIUIUIUIUIi2VIM;X",
";nII7IiqzIDiiUJIIUIUIUIUIUIUIUIUIUIUIUIUUIUIUIUIUIUIUIUIFi2IIV;X",
"-VIViFMqJxxJFIIUUIUIUIUIUIUIUIUIUIUIUIUIIUIUIUIUIUIUIUIUUi1CVF-X",
";VII,FJVbqiUUIUIIUIUIUIUIUIUIUIUIUIUIUIUUIUIUIUIUIUIUIUIIi2IV2-X",
"-VPVyiPPx,iIIUIUUIUIUIUIUIUIUIUIUIUIUIUIIUIUIUIUIUIUIUIUIItVV2-o",
";VPP1tIIxxVIUIUIIUIUIUIUIUIUIUIUIUIUIUIUUIUIUIUIUIUIUIUIIVnIV1-.",
"-MFVyVVIDDaIPUIUUIUIUIUIUIUIUIUIUIUIUIUIIUIUIUIUIUIUIUUJIM7BB9=.",
";VIIyVIIzMaIUIUIIUIUIUIUIUIUIUIUIUIUIUIUUIUIUIUIUIUIUIIUJ9,BB9-.",
"-VIViJUjaFUIUIUIIUIUIUIUIUIUIUIUUIUIUIUIIUIUIUIUIUIUIUIULq6MV9=o",
";VIP2IF72JIUIUIUUIUIUIUIUIUIUIUIIUIUIUIUUIUIUIUIUIUIUIUIJ8,CJ9-.",
"-VPF2gV,1UUIUIUIIUIUIUIUIUIUIUPUUIUIUIUIIUIUIUIUIUIUIUIUJ9,UB9=o",
";VPP2iz12FIUIUIUUIUIUIUIUIUIUIUPIUIUIUIUUIUIUIUIUIUIUIUIU9,IB9-.",
"-gIV1aiiaUIIUIUIIUIUIUIUIUIUIUPUUIUIUIUIIUIUIUIUIUIUIUIUL,,CB9*o",
";VPPi2iMFJIUIUIUUIUIUIUIUIUIUUUPIUIUIUIUUIUIUIUIUIUIUIUIL9qJB9-.",
";VPV22iaFUUPUIUIIUIUIUIUIUIUUGLMUIUIUIUIIUIUIUIUIUIUIUIUL99Jb9*o",
";VPP2qqiaUPUIUIUUIUIUIUIUIUIGaaMMUIUIUIUUIUIUIUIUIUIUIUIL,9DB9-.",
"-VPVynnzFIUIUIUIIUIUIUIUUIULD8xDLLIPIUIUIUIUIUIUIUIUPUIUL,2BB9=.",
";iII9nnVUIPUIUIUUIUIUIUIIUILh8aPLLPPUIUIUIUIUIUIUIUIUPUIB97IB9=.",
";VVV1aVVIUIUUIUIIUIUIUIUUPIFjxDPIUPUIUIUIUIUIUIUIUIUPUJF9,:VD9=o",
";nII1iVIUIUIIUIUUIUIUIUIPUIIDaDLUIUPUIUIUIUIUIUIUIUPUPUD,,>MB9=o",
";VIV6VCIIUIUIUIUIUIUIUIUUPUiqxUUIUIUIUIUIUIUIUIUIUIUIIUM6q>FB9=.",
";VIItVIIUIUIUIUIUIUIUIUIPUPaMUJIUIUIUIUIUIUIUIUIUIUIII16a,>CB,=.",
"-CIV7JPIIUIUIUIUIUIUIUIUIFVzMJPUIUIUIUIUIUIUIUIUIUIUUUqqM9,CB:=o",
";nIC1iUPUIUIUIUIUIUIUIUIF727xFPPUIUIUIUIUIUIUIUIUIUIUJxUD92CB9-.",
";CIV2MVIIIIUIUIUIUIPUPUUPi1jVJUPUIUIUIUIUIUIUIUIIUIUJU7IF,6VV9=o",
";iIVnVIIIIUIUIUIIIz22VUHUF8DUPUIIUIUIUIUIUIUIUIUUIUIMM7jt1:IV9-.",
";VIV2yPIIUIUUIIUIFq7qDDjUFeDUIUIUIUIUIUIUIUIUIUIIUIUi1at,1,In9-o",
"-zPI:1xIUIUIIUIIx16DFi7<axxJIUIUIUIUIUIUIUIUIUIUUIUIFDFDi;1VM9-.",
"=9DF7:00IIUIUIUh2iDFIxxqJxzVIIUIUIUIUIUIUIUIUIUIIUUIUUVV6;7FB9=o",
"-,FJt1,0LUIUIUa,2zZDUVVIxDFJIUIUIUIUIUIUIUIUIUIUUIIU8qg1>>iLz9=.",
"-9iDnny:xIUIII1>1FIUPUUIIUPUUIUIUIUIUIUIUIUIUIIIIUII6>2>>iMMq9=o",
"=97MVVi2qIIIFx2i7IUIUPIIUPUIPUIUIUIUIUIUIUIUIUIIUIUUi711sMDD7,$.",
"-,qUPPMzxIIIVqqz6JIUIUIIIUPPUIUIUIUIPIIUIIILPPIIILIU,11iiFPFi,#.",
"=,FFUPFMziIVIVxFJVPPUIIVUIIPPUIFIIJIPPUIIFIILLICPLLq,t,nFPIIi;#.",
"=9aJPPIPVi11:2,099xJPV:2xIFzPIzyii7VIIUIIq,1,9,0DJJ1:tFIPUPFi,#o",
"*,iDLUIIJVi7t,0,;6,n,,:1,,,,2,,,,,;11,,,1::,>::,,,,>1iFFUPUP7>#o",
"*<qqDDJCJJJDVVVVVVViqqq7q9qqq7q8qqq,q9qq,qqq976iq69qiiFDFFJMi,*o",
"=,qexqaxxqDMCMCIMVVVDMMJJVBBaMDMBDLMCCBDMDDDMMxiMzzMCgiMaMaM72*X",
"#;,,,<9q,,q9,,99,,2MMDMaMDMa8aiMMDnCnnBMMMnDMxigFaVMiagVVnDx9>*o",
"+#$*$$*-=-=**=-=--;---;-;;-&&-;-;-;;;;;-;-;;;-;;;-;-;;;-;--**$O."
};
