/* XPM */
static char *d636924116334d41f5fb0383ae6821faRL70dCYOBQHVPx5t[] = {
/* columns rows colors chars-per-pixel */
"64 64 6 1 ",
"  c #213B25",
". c #433A60",
"X c #3A604A",
"o c #4F7754",
"O c magenta",
"+ c #7C94A1",
/* pixels */
"OOOOOOOOOOOOOOOOOOOOOOOOOOOOOOOOOOOOOOOOOOOOOOOOOOOOOOOOOOOOOOOO",
"OOOOOOOOOOOOOOOOOOOOOOOOOOOOOOOOOOOOOOOOOOOOOOOOOOOOOOOOOOOOOOOO",
"OOOOOOOOOOOOOOOOOOOOOOOOOOOOOOOOOOOOOOOOOOOOOOOOOOOOOOOOOOOOOOOO",
"OOOOOOOOOOOOOOOOOOOOOOOOOOOOOOOOOOOOOOOOOOOOOOOOOOOOOOOOOOOOOOOO",
"OOOOOOOOOOOOOOOOOOOOOOOOOOOOOOOOOOOOOOOOOOOOOOOOOOOOOOOOOOOOOOOO",
"OOOOOOOOOOOOOOOOOOOOOOOOOOOOOOOOOOOOOOOOOOOOOOOOOOOOOOOOOOOOOOOO",
"OOOOOOOOOOOOOOOOOOOOOOOOOOOOOOOOOOOOOOOOOOOOOOOOOOOOOOOOOOOOOOOO",
"OOOOOOOOOOOOOOOOOOOOOOOOOOOOOOOOOOOOOOOOOOOOOOOOOOOOOOOOOOOOOOOO",
"OOOOOOOOOOOOOOOOOOOOOOOOOOOOOOOOOOOOOOOOOOOOOOOOOOOOOOOOOOOOOOOO",
"OOOOOOOOOOOOOOOOOOOOOOOOOOOOOOOOOOOOOOOOOOOOOOOOOOOOOOOOOOOOOOOO",
"OOOOOOOOOOOOOOOOOOOOOOOOOOOOOOOOOOOOOOOOOOOOOOOOOOOOOOOOOOOOOOOO",
"OOOOOOOOOOOOOOOOOOOOOOOOOOOOOOOOOOOOOOOOOOOOOOOOOOOOOOOOOOOOOOOO",
"OOOOOOOOOOOOOOOOOOOOOOOOOOOOOOOOOOOOOOOOOOOOOOOOOOOOOOOOOOOOOOOO",
"OOOOOOOOOOOOOOOOOOOOOOOOOOOOOOOOOOOOOOOOOOOOOOOOOOOOOOOOOOOOOOOO",
"OOOOOOOOOOOOOOOOOOOOOOOOOOOOOOOOOOOOOOOOOOOOOOOOOOOOOOOOOOOOOOOO",
"OOOOOOOOOOOOOOOOOOOOOOOOOOOOOOOOOOOOOOOOOOOOOOOOOOOOOOOOOOOOOOOO",
"OOOOOOOOOOOOOOOOOOOOOOOOOOOOOOOOOOOOOOOOOOOOOOOOOOOOOOOOOOOOOOOO",
"OOOOOOOOOOOOOOOOOOO.........................OOOOOOOOOOOOOOOOOOOO",
"OOOOOOOOOOOOOOOOOO...........................OOOOOOOOOOOOOOOOOOO",
"OOOOOOOOOOOOOOOOOO...........................OOOOOOOOOOOOOOOOOOO",
"OOOOOOOOOOOOOOOOOOO+XXXXXXXXXXXXXXXXXXXXXXX+OOOOOOOOOOOOOOOOOOOO",
"OOOOOOOOOOOOOOOOOOO+XXXXXXXXXXXXXXXXXXXXXXX+OOOOOOOOOOOOOOOOOOOO",
"OOOOOOOOOOOOOOOOOOO+XXXXXXXXXXXXX XXXXXXXXX+OOOOOOOOOOOOOOOOOOOO",
"OOOOOOOOOOOOOOOOOOO+XXXXX XXXXXX  XXXXXXXXX+OOOOOOOOOOOOOOOOOOOO",
"OOOOOOOOOOOOOOOOOOO+XXXXX   XXXX  XXXoXX+XX+OOOOOOOOOOOOOOOOOOOO",
"OOOOOOOOOOOOOOOOOOO+XXXXX  +      XXXXX+XXX+OOOOOOOOOOOOOOOOOOOO",
"OOOOOOOOOOOOOOOOOOO+XXXXXX+       XXXX+XXXX+OOOOOOOOOOOOOOOOOOOO",
"OOOOOOOOOOOOOOOOOOO+XXXXX+X       XXXXXXXXX+OOOOOOOOOOOOOOOOOOOO",
"OOOOOOOOOOOOOOOOOOO+XXXX+XX oo   oXXXXXXXXX+OOOOOOOOOOOOOOOOOOOO",
"OOOOOOOOOOOOOOOOOOO+XXX+XXX oo   oXXXXXXXXX+OOOOOOOOOOOOOOOOOOOO",
"OOOOOOOOOOOOOOOOOOO+XXXXXXX       XXXXXXXXX+OOOOOOOOOOOOOOOOOOOO",
"OOOOOOOOOOOOOOOOOOO+XXXXXX        XXXXXXXXX+OOOOOOOOOOOOOOOOOOOO",
"OOOOOOOOOOOOOOOOOOO+XXXXX         XXXXXXXXX+OOOOOOOOOOOOOOOOOOOO",
"OOOOOOOOOOOOOOOOOOO+XXXX        XXXXXXXXXXX+OOOOOOOOOOOOOOOOOOOO",
"OOOOOOOOOOOOOOOOOOO+XXXX        XXXXXXXoXXX+OOOOOOOOOOOOOOOOOOOO",
"OOOOOOOOOOOOOOOOOOO+XXX         XXXXXXXXXXX+OOOOOOOOOOOOOOOOOOOO",
"OOOOOOOOOOOOOOOOOOO+XX          XXXX+XXXXXX+OOOOOOOOOOOOOOOOOOOO",
"OOOOOOOOOOOOOOOOOOO+XX  X       XXX+XXXXXXX+OOOOOOOOOOOOOOOOOOOO",
"OOOOOOOOOOOOOOOOOOO+X   X       XX+XXXXXXXX+OOOOOOOOOOOOOOOOOOOO",
"OOOOOOOOOOOOOOOOOOO+X  XX       X+XXXXXXXXX+OOOOOOOOOOOOOOOOOOOO",
"OOOOOOOOOOOOOOOOOOO+X XX      X  XXXXXXXXXX+OOOOOOOOOOOOOOOOOOOO",
"OOOOOOOOOOOOOOOOOOO+X XX     XXX  XXXXXXXXX+OOOOOOOOOOOOOOOOOOOO",
"OOOOOOOOOOOOOOOOOOO+X XX     XXX  XXoXXXXXX+OOOOOOOOOOOOOOOOOOOO",
"OOOOOOOOOOOOOOOOOOO+  XXX    XXXX XXXXXXXXX+OOOOOOOOOOOOOOOOOOOO",
"OOOOOOOOOOOOOOOOOOO+ XXXX    XXXXX XXXXXXXX+OOOOOOOOOOOOOOOOOOOO",
"OOOOOOOOOOOOOOOOOOO+ XXXX     XXXXX XXXXXXX+OOOOOOOOOOOOOOOOOOOO",
"OOOOOOOOOOOOOOOOOOO+X XXXX     XXX  XXXXXXX+OOOOOOOOOOOOOOOOOOOO",
"OOOOOOOOOOOOOOOOOOO+XXXoX+      XXXXXXXXXXX+OOOOOOOOOOOOOOOOOOOO",
"OOOOOOOOOOOOOOOOOOO+XXXX+XX      XX+XXoXXXX+OOOOOOOOOOOOOOOOOOOO",
"OOOOOOOOOOOOOOOOOOO+XXX+XXXX     X+XXXXXXXX+OOOOOOOOOOOOOOOOOOOO",
"OOOOOOOOOOOOOOOOOOO+X XXXXXXXX   +XXXXXXXXX+OOOOOOOOOOOOOOOOOOOO",
"OOOOOOOOOOOOOOOOOOO+X  XXoXXXX  + XXXXXXXXX+OOOOOOOOOOOOOOOOOOOO",
"OOOOOOOOOOOOOOOOOOO+X   XXXXX     XXoXXXXXX+OOOOOOOOOOOOOOOOOOOO",
"OOOOOOOOOOOOOOOOOOO+XX           XXXXXXXXXX+OOOOOOOOOOOOOOOOOOOO",
"OOOOOOOOOOOOOOOOOOO+XXX        XXXXXXXXXXXX+OOOOOOOOOOOOOOOOOOOO",
"OOOOOOOOOOOOOOOOOOO+XXXXX   XXXXXXXXXoXXXXX+OOOOOOOOOOOOOOOOOOOO",
"OOOOOOOOOOOOOOOOOOO+XXXoXXXXXXXXXXXXXXXXXXX+OOOOOOOOOOOOOOOOOOOO",
"OOOOOOOOOOOOOOOOOOO+XXXXXXXXXXXXXXXXXXXXXXX+OOOOOOOOOOOOOOOOOOOO",
"OOOOOOOOOOOOOOOOOOO.........................OOOOOOOOOOOOOOOOOOOO",
"OOOOOOOOOOOOOOOOOOO.........................OOOOOOOOOOOOOOOOOOOO",
"OOOOOOOOOOOOOOOOO.............................OOOOOOOOOOOOOOOOOO",
"OOOOOOOOOOOOOOOOO.............................OOOOOOOOOOOOOOOOOO",
"OOOOOOOOOOOOOOOOO.............................OOOOOOOOOOOOOOOOOO",
"OOOOOOOOOOOOOOOOO.............................OOOOOOOOOOOOOOOOOO"
};
